Coordinates
version=1
nRows=8
nColumns=41
inDegrees=no

If the header above contains a line with 'inDegrees', this indicates whether rotational values are in degrees (yes) or radians (no).

endheader
time	pelvis_tx	pelvis_tz	pelvis_ty	pelvis_tilt	pelvis_list	pelvis_rotation	hip_flexion_r	hip_adduction_r	hip_rotation_r	knee_angle_r	ankle_angle_r	subtalar_angle_r	mtp_angle_r	hip_flexion_l	hip_adduction_l	hip_rotation_l	knee_angle_l	ankle_angle_l	subtalar_angle_l	mtp_angle_l	lumbar_extension	lumbar_bending	lumbar_rotation	neck_extension	neck_bending	neck_rotation	arm_flex_r	arm_add_r	arm_rot_r	elbow_flex_r	pro_sup_r	wrist_flex_r	wrist_dev_r	arm_flex_l	arm_add_l	arm_rot_l	elbow_flex_l	pro_sup_l	wrist_flex_l	wrist_dev_l
6.0	-0.35693359375	3.697265625	2.005859375	0.026094829066250824	-0.08853367872630424	3.0970943128964366	0.03412325398131266	-0.07483490606524366	-0.2050215160135552	0.13708381849314022	-0.06539570917847014	0.14464538085297987	0.4973356809427036	0.36096564799923414	0.02905794963831014	-0.19488826576471335	1.070568364476948	-0.26271558986041493	-0.4580115200503213	0.47807553811426856	0.0028582130163250508	-0.016357598717973258	-0.08364115632976249	0.020250830177644286	-0.02369258222183429	0.02539352225385393	-0.09878672592775473	-0.12369037386153059	-0.32283869609963467	0.292108530291453	1.6245014453424083	-0.4704554576568783	-0.18605687595432988	-0.030241896839340865	-0.24519921091689578	0.07032396246402572	0.5019726379642202	1.5904744351545963	-0.4856114251663698	-0.06083011976093877
6.04167	-0.352294921875	3.677734375	2.001953125	0.03985033610220956	-0.1323524533792355	3.054634393478957	-0.024182692275036888	-0.09612522572403562	-0.1933674785029166	0.09901542031177968	-0.0473949597675701	0.13161236868518028	0.4322655571510873	0.4702141218597238	0.06899834489186449	-0.19754915583598542	0.9647641177527571	-0.10092794333483257	-0.36681905571600515	0.656817624292555	0.01739617753484035	-0.08586764586462829	-0.002036387054125358	0.026188033998657878	0.0019141470429936333	-0.007742619674795406	-0.01246900746027757	-0.086780588092353	-0.3477274635971892	0.3738210451663726	1.6978767978187754	-0.42816291814324875	-0.2061151253525522	-0.13949323202335884	-0.1893980558107372	-0.047562585917674614	0.38912279797770666	1.6101675341978763	-0.3403367194236063	-0.030161530990099203
6.08333	-0.343017578125	3.623046875	1.978515625	0.04212316029145913	-0.12445154659682522	3.0245886685119325	-0.10244790057236297	-0.10708233287317412	-0.1974224638754838	0.05671019497905405	0.015554934020311549	0.16401445785757243	0.41698055208321705	0.5158004405667078	0.08899899235307006	-0.2375067453221156	0.7199178634118105	-0.09243632066582226	-0.3044287267019238	0.639470422397478	0.018254425075842406	-0.09493926424074396	0.05123340977691656	0.01653630463495115	-0.0020277584486583767	-0.004509922142785896	0.0868157634611132	-0.06481232659524161	-0.33438997876855603	0.4554309442561765	1.704148901423615	-0.42370864964748495	-0.2579192088027238	-0.1757240742683609	-0.22019485404518158	-0.15072700457203056	0.4220310715265778	1.6685474468533776	-0.30090394000073317	-0.027974169895763373
6.125	-0.335693359375	3.60546875	1.9619140625	0.05394723170743276	-0.12940444647090077	3.0042197422273076	-0.17028247929806428	-0.0987188590343963	-0.18537997093132783	0.03255059780840486	0.060178964067657874	0.19872936190183532	0.44640518512907207	0.5188505200674347	0.10505802303932138	-0.20856589486665766	0.3926914281085395	-0.08742424065138205	-0.3059047918108941	0.5631940911943044	0.03426003062101668	-0.1263644420611155	0.11299635924287088	0.01768241484459221	0.01754201969342904	-0.01751902225052504	0.15137695820410524	-0.06689865033293063	-0.3123559935648642	0.5588110430458485	1.6941952517724197	-0.4411884930949025	-0.3153146688534283	-0.2934608293803743	-0.16737902654092962	-0.24962933554835987	0.4310896538827187	1.7434858144948047	-0.2627842187517641	-0.02028551602805255
6.16667	-0.33447265625	3.60546875	1.94921875	0.07581460520982497	-0.1362014922303625	2.952918491650051	-0.22297073710885507	-0.10708233287317412	-0.1593524269965907	0.007380404842848964	0.07319415798414601	0.2669793618362009	0.4618682673804926	0.5034389627140583	0.10198463354541466	-0.09542369337579308	0.09372679186717692	-0.11193425863972392	-0.43580772018224234	0.30767861189514306	0.06483337958146218	-0.13689400422093717	0.1629691355718658	0.03204797522399516	0.03827884275065777	-0.018634369440677163	0.22348687705885906	-0.07003059357714647	-0.2083442190456367	0.663994831665252	1.6774773452661773	-0.43573148988185734	-0.36936268691523366	-0.45207725239187	-0.22344880144577328	-0.4723556746358064	0.3824627726361137	1.8203869968999595	-0.29725874079156017	0.021085813186340632
6.20833	-0.3349609375	3.623046875	1.9443359375	0.09541340840810619	-0.1437698378394181	2.9311833110741254	-0.25418512654871017	-0.14183061654869888	-0.15960663794972926	0.026977775218660183	0.06994123578848338	0.27088800153176795	0.4814074165217408	0.528793333565303	0.0901787804504165	-0.04122019838119586	0.028450120181560568	-0.13261201256997573	-0.5288508951828245	0.1807160402370935	0.08767205193718564	-0.13333063225066	0.19466819854187803	0.037009441275870913	0.04419765284924645	-0.021772987418167397	0.2764006232406301	-0.09623680549376801	-0.14331443647718667	0.7486190259615624	1.6205362874485527	-0.4210824604794359	-0.38910089139833237	-0.5559770030677128	-0.23811942382702078	-0.5689104905004366	0.3845072617107478	1.8556371563549825	-0.30398381747468944	0.04806337201241181
6.25	-0.339111328125	3.599609375	1.9287109375	0.08640118234671568	-0.13676358529716115	2.924369283196244	-0.2945008934519803	-0.17913514811058454	-0.14879990266390622	0.0985306809515838	0.009820892743602795	0.2445803043622891	0.4566075471765422	0.5217274069362454	0.11136526732550982	-0.051665224140669874	0.10242937542994812	-0.18975565751983656	-0.49215393450548534	0.2556355862113404	0.0912621794764722	-0.14400170417213096	0.22690294252943013	0.04569059918976004	0.050821127069197586	-0.03747552346140313	0.2673600462885224	-0.09308197110999605	-0.1486369500255867	0.8302597097869011	1.5631383954499936	-0.4489489825784199	-0.3897137360593058	-0.5980915547802527	-0.21423525821093914	-0.6320908614672484	0.3632521410746422	1.872478916550869	-0.2160398320153809	0.05452007141758957
6.29167	-0.35107421875	3.6171875	1.93359375	0.086641614507867	-0.150326764940103	2.932789252115614	-0.29250411711733126	-0.2158735575376164	-0.14447496151886977	0.22636446143296207	-0.09618424890213399	0.17936027319395784	0.4530942210394636	0.5091817663326951	0.13659914018054922	-0.054731192211160046	0.18961950250808646	-0.22646307313171607	-0.4506318967025656	0.3375258895709013	0.10775684390111506	-0.15364309736266818	0.245495224191851	0.044345846904683794	0.046146490569319264	-0.048667594551979235	0.22348687705885906	-0.11627947275761852	-0.17330171664951136	0.858277558512245	1.5233542375900002	-0.4921247587940034	-0.3869414074488463	-0.6205120058590233	-0.207742706090716	-0.6483994358354147	0.35131731652798726	1.8831033497568503	-0.1665846389910154	0.059329440660238916
